<?xml version="1.0" encoding="UTF-8"?>
<svg version="1.1" xmlns="http://www.w3.org/2000/svg" width="512" height="512">
<path d="M0 0 C3.48474016 0.00687844 6.96943797 -0.00373359 10.45416927 -0.01193976 C17.2557041 -0.02518693 24.05713886 -0.02244 30.85867739 -0.01370184 C36.39299837 -0.00688984 41.92729158 -0.00602365 47.46161556 -0.00927329 C48.25328377 -0.00973299 49.04495198 -0.01019269 49.86061013 -0.01066632 C51.46953536 -0.01162562 53.07846058 -0.01259827 54.6873858 -0.01358409 C69.7273299 -0.02211157 84.76721888 -0.01234554 99.80715394 0.00381701 C112.67489186 0.01721778 125.54254854 0.01488894 138.410285 0.00106072 C153.40129778 -0.01504201 168.39226243 -0.02128784 183.38328266 -0.01210248 C184.98585033 -0.01114697 186.588418 -0.01020386 188.19098568 -0.00927329 C189.37331742 -0.00857905 189.37331742 -0.00857905 190.57953465 -0.00787079 C196.09867116 -0.00529493 201.6177768 -0.00962134 207.13690853 -0.01671195 C213.87511558 -0.02517956 220.61321798 -0.02273746 227.35141325 -0.00686972 C230.78057797 0.00094299 234.20956905 0.00422649 237.63873196 -0.00581717 C255.74971858 -0.04602669 273.1232834 0.48240047 290.38880062 6.51717401 C291.25956234 6.8164782 292.13032406 7.1157824 293.0274725 7.42415643 C321.19361378 17.48312574 343.86322625 37.21195505 357.05823421 64.14656854 C365.94127462 83.17514407 369.98359922 103.29292964 369.96674252 124.22878289 C369.9711992 125.9760616 369.9711992 125.9760616 369.97574592 127.75863886 C369.98288537 130.97002214 369.98560204 134.18137268 369.98634338 137.39276266 C369.98820481 140.86543722 369.99575773 144.33810044 370.0024786 147.81076837 C370.01602073 155.39611268 370.02208075 162.98145169 370.02648926 170.56680608 C370.02925976 175.31273724 370.03349866 180.05866639 370.03799343 184.80459619 C370.05018279 197.97098307 370.06048141 211.13736836 370.06386852 224.30376077 C370.06408809 225.1453663 370.06430765 225.98697184 370.06453387 226.85408057 C370.06475215 227.6975931 370.06497043 228.54110563 370.06519532 229.41017914 C370.06563877 231.11918394 370.06608534 232.82818874 370.066535 234.53719354 C370.06675643 235.38490194 370.06697786 236.23261035 370.067206 237.10600689 C370.07114703 250.8164749 370.0885813 264.52688954 370.11189452 278.23733696 C370.13569272 292.34819024 370.14807428 306.45901685 370.14923644 320.5698905 C370.15014868 328.47852337 370.1557859 336.38708675 370.17405605 344.29570031 C370.18957213 351.03549034 370.19451069 357.77518941 370.18631795 364.51499394 C370.18245105 367.94451881 370.18482602 371.37371461 370.1973753 374.80324006 C370.26204041 393.591961 369.95440033 412.63949703 364.13880062 430.70467401 C363.88461361 431.51750848 363.6304266 432.33034295 363.36853695 433.16780877 C354.27866282 461.00333773 334.7238159 484.62619336 308.82630062 498.39217401 C285.33355415 510.21053727 261.76861795 512.85935321 235.82730305 512.79900706 C232.34996095 512.79421923 228.87267117 512.80683427 225.39534664 512.81702447 C218.60503906 512.83411068 211.81482442 512.83507363 205.02450094 512.82981157 C199.49686348 512.82574866 193.96925321 512.82723841 188.44161701 512.83255982 C187.65096821 512.83330825 186.8603194 512.83405667 186.04571154 512.83482777 C184.4388077 512.83635946 182.83190387 512.83789781 181.22500005 512.83944274 C166.19734194 512.85313156 151.16973608 512.84775616 136.1420792 512.83625752 C122.44246776 512.82633417 108.74299157 512.83925674 95.04340098 512.86319172 C80.92436762 512.88767066 66.80539702 512.89716877 52.6863429 512.89053899 C44.78058132 512.88706554 36.87492354 512.88915334 28.9691782 512.90679002 C22.23762772 512.92162284 15.50625411 512.92200501 8.7747067 512.90471911 C5.35100523 512.8962955 1.92787281 512.89607251 -1.49585056 512.90937066 C-34.37360925 513.02721746 -66.55379694 507.62191922 -92.17369938 485.39217401 C-92.96905094 484.72830682 -93.7644025 484.06443963 -94.58385563 483.38045526 C-112.82892383 467.6733409 -123.632873 447.94002626 -129.92369938 424.95467401 C-130.12253727 424.24085565 -130.32137516 423.52703729 -130.52623844 422.79158807 C-134.86839154 405.95177993 -134.46616109 388.80038288 -134.44835758 371.54744744 C-134.45162244 368.74998325 -134.45783325 365.95252714 -134.46384525 363.15506768 C-134.47651928 356.37801005 -134.4783951 349.60099218 -134.47604499 342.82392469 C-134.47425334 337.30816954 -134.47602951 331.79242633 -134.48026943 326.2766726 C-134.48086462 325.48808622 -134.48145981 324.69949984 -134.48207304 323.88701691 C-134.48328494 322.28437708 -134.48449907 320.68173725 -134.48571541 319.07909742 C-134.49656298 304.08823582 -134.49444177 289.09739677 -134.48833057 274.10653391 C-134.48316469 260.4346307 -134.49441314 246.7627988 -134.51342878 233.09090969 C-134.53286683 219.0058253 -134.54105271 204.92077454 -134.53730553 190.83567667 C-134.53540241 182.94674748 -134.53779355 175.05787895 -134.55202007 167.16896081 C-134.56401132 160.45236183 -134.56525302 153.73586084 -134.55322991 147.01926032 C-134.54739469 143.60196748 -134.54775915 140.18499776 -134.55823231 136.76769471 C-134.61074195 118.28890288 -134.13663633 99.90831861 -128.48619938 82.14217401 C-128.23346256 81.32627801 -127.98072575 80.51038201 -127.72033024 79.6697619 C-125.06075024 71.4575992 -121.41232044 63.89374162 -117.17369938 56.39217401 C-116.63100407 55.40990838 -116.08830875 54.42764276 -115.52916813 53.41561151 C-100.14286657 27.43484927 -72.84660835 10.78635446 -44.17369938 3.39217401 C-29.51260616 0.01702624 -14.98631167 -0.04389338 0 0 Z " fill="#3F3B3B" transform="translate(138.17369937896729,-0.39217400550842285)"/>
<path d="M0 0 C12.36913388 7.72543174 18.50941693 17.79467802 22.4765625 31.6796875 C22.4765625 43.2296875 22.4765625 54.7796875 22.4765625 66.6796875 C46.2365625 66.6796875 69.9965625 66.6796875 94.4765625 66.6796875 C94.4765625 55.1296875 94.4765625 43.5796875 94.4765625 31.6796875 C99.12170842 17.74424973 104.56747122 6.57222519 117.88671875 -0.31787109 C129.24616425 -5.93053346 142.17750853 -7.91983211 154.5390625 -3.7578125 C166.12689645 1.37240501 176.08924344 10.10692804 181.4765625 21.6796875 C185.98825339 34.31632821 185.15537287 46.18199192 180.4765625 58.6796875 C178.51872069 62.40637154 176.23779773 65.51307944 173.4765625 68.6796875 C172.95320312 69.32292969 172.42984375 69.96617187 171.890625 70.62890625 C167.08986995 76.02682839 161.00758989 78.80567953 154.4765625 81.6796875 C153.71601563 82.04449219 152.95546875 82.40929687 152.171875 82.78515625 C140.60411137 86.62431259 122.48847366 84.6796875 112.4765625 84.6796875 C112.4765625 108.1096875 112.4765625 131.5396875 112.4765625 155.6796875 C121.7165625 155.6796875 130.9565625 155.6796875 140.4765625 155.6796875 C155.24143091 158.36420903 166.04164169 161.90014436 175.359375 174.15625 C176.80273537 176.29688592 178.1577997 178.46095819 179.4765625 180.6796875 C180.1365625 181.6696875 180.7965625 182.6596875 181.4765625 183.6796875 C185.78478614 198.12607044 185.24556426 210.83793795 177.97265625 224.3046875 C171.78784728 234.12286989 162.32757193 241.99596654 151.04296875 245.24609375 C138.02704055 247.44513185 124.89984403 245.64927978 113.7890625 238.40234375 C102.59930433 230.06672998 98.12983155 221.07500735 94.4765625 207.6796875 C94.4765625 196.4596875 94.4765625 185.2396875 94.4765625 173.6796875 C70.7165625 173.6796875 46.9565625 173.6796875 22.4765625 173.6796875 C22.4765625 184.8996875 22.4765625 196.1196875 22.4765625 207.6796875 C18.23178567 221.4752122 12.80501735 232.99728423 0.1015625 240.4296875 C-1.42617103 241.20767617 -2.96797515 241.95873466 -4.5234375 242.6796875 C-5.55404297 243.16115234 -5.55404297 243.16115234 -6.60546875 243.65234375 C-15.99254435 247.39672455 -28.00470882 246.87296887 -37.5234375 243.6796875 C-49.34194776 238.4768834 -58.53258342 230.84717658 -63.74609375 218.87109375 C-68.32876719 206.76560871 -68.6243354 196.01146559 -64.5234375 183.6796875 C-58.15389535 170.73839551 -48.78723528 162.91725973 -35.5234375 157.6796875 C-26.5234375 155.6796875 -26.5234375 155.6796875 4.4765625 155.6796875 C4.4765625 132.2496875 4.4765625 108.8196875 4.4765625 84.6796875 C-5.4234375 84.6796875 -15.3234375 84.6796875 -25.5234375 84.6796875 C-40.2393124 81.73651252 -51.5865015 76.70310163 -60.296875 64.1171875 C-66.98259663 52.89822047 -69.36260734 39.98430289 -66.4609375 27.2421875 C-62.4123913 13.95320946 -52.87252425 4.17948401 -40.82421875 -2.34765625 C-27.65903 -7.91324538 -12.53788894 -6.56007192 0 0 Z " fill="#EDEDED" transform="translate(197.5234375,131.3203125)"/>
<path d="M0 0 C23.76 0 47.52 0 72 0 C72 23.43 72 46.86 72 71 C48.24 71 24.48 71 0 71 C0 47.57 0 24.14 0 0 Z " fill="#403C3C" transform="translate(220,216)"/>
<path d="M0 0 C0.33 0 0.66 0 1 0 C1.08636719 1.07894531 1.17273438 2.15789062 1.26171875 3.26953125 C3.67326606 30.13283527 12.35395572 55.31020573 30 76 C30.763125 77.010625 31.52625 78.02125 32.3125 79.0625 C36.44390543 83.57822221 41.16907177 87.25865613 46 91 C46.78375 91.61101562 47.5675 92.22203125 48.375 92.8515625 C58.37131288 100.24748318 69.58509195 105.47867171 81.375 109.3125 C82.06779053 109.54267822 82.76058105 109.77285645 83.47436523 110.01000977 C101.04585563 115.39097039 118.73948543 115.43798469 136.94824219 115.40405273 C139.73290886 115.40812831 142.51755846 115.41663433 145.30221558 115.42485046 C152.04091723 115.44192521 158.77952517 115.44290213 165.51824281 115.43763756 C171.00390371 115.43357285 176.48953722 115.43506651 181.97519684 115.44038582 C182.76015943 115.44113424 183.54512202 115.44188266 184.35387136 115.44265376 C185.94925967 115.44418547 187.54464796 115.44572382 189.14003626 115.44726873 C204.05515217 115.46095315 218.97021543 115.45558506 233.88533011 115.44408352 C247.48141393 115.43415837 261.07736152 115.44708663 274.67342433 115.47101771 C288.68852831 115.49549739 302.70356908 115.50499473 316.71869397 115.49836498 C324.56519614 115.49489199 332.41159372 115.49697639 340.25807953 115.51461601 C346.9383693 115.5294497 353.61848085 115.5298298 360.29876754 115.5125451 C363.69614889 115.5041226 367.09295687 115.50389649 370.49036026 115.51719666 C404.79087836 115.64111385 436.16610596 109.3552526 463 87 C463.67417969 86.47792969 464.34835937 85.95585937 465.04296875 85.41796875 C488.38250456 66.88520233 498.91394183 35.1038963 502.40625 6.6953125 C502.63356687 4.46634433 502.8227376 2.23350623 503 0 C503.33 0 503.66 0 504 0 C505.75448866 31.38585277 494.60945736 63.13406723 474.00952148 86.71484375 C453.51507284 109.43907106 423.62935735 123.37208625 393.05397439 125.17357898 C385.37164169 125.43776218 377.68700504 125.42471266 370.00100243 125.40683305 C366.52366033 125.40204523 363.04637055 125.41466026 359.56904602 125.42485046 C352.77873844 125.44193668 345.9885238 125.44289962 339.19820032 125.43763756 C333.67056286 125.43357465 328.14295258 125.4350644 322.61531639 125.44038582 C321.82466759 125.44113424 321.03401878 125.44188266 320.21941092 125.44265376 C318.61250708 125.44418546 317.00560325 125.4457238 315.39869943 125.44726873 C300.37104132 125.46095756 285.34343545 125.45558216 270.31577858 125.44408352 C256.61616714 125.43416016 242.91669094 125.44708273 229.21710036 125.47101771 C215.098067 125.49549665 200.9790964 125.50499477 186.86004227 125.49836498 C178.9542807 125.49489154 171.04862292 125.49697933 163.14287758 125.51461601 C156.4113271 125.52944883 149.67995349 125.52983101 142.94840608 125.5125451 C139.52470461 125.50412149 136.10157219 125.50389851 132.67784882 125.51719666 C99.80009012 125.63504345 67.61990244 120.22974522 42 98 C40.80697266 97.00419922 40.80697266 97.00419922 39.58984375 95.98828125 C15.73632128 75.45286855 3.60391893 46.57344544 0.26953125 15.69140625 C-0.11312998 10.45061112 -0.17898968 5.25036389 0 0 Z " fill="#010101" transform="translate(4,387)"/>
<path d="M0 0 C1.05904289 0.00212242 1.05904289 0.00212242 2.13948059 0.00428772 C4.39120751 0.00987861 6.64283446 0.02242937 8.89453125 0.03515625 C10.4225246 0.04017243 11.95051952 0.04473513 13.47851562 0.04882812 C17.2213926 0.05984505 20.96419498 0.07710338 24.70703125 0.09765625 C24.80675726 4.63250489 24.8788978 9.16669945 24.92675781 13.70239258 C24.94673246 15.24156836 24.97392222 16.78066963 25.00878906 18.31958008 C25.26223604 29.80296432 24.46884923 38.76869683 16.421875 47.59375 C9.89497801 53.31779406 2.41323614 54.44826074 -5.9921875 54.3828125 C-10.52133035 53.99153744 -13.58739502 52.64468545 -17.29296875 50.09765625 C-18.62328125 49.23140625 -18.62328125 49.23140625 -19.98046875 48.34765625 C-25.57133829 42.90789129 -29.55269212 35.73257765 -29.66796875 27.84765625 C-29.47166278 19.24483564 -25.99937619 13.06557981 -20.23046875 6.82421875 C-14.33029732 1.56640469 -7.72493824 -0.05824974 0 0 Z " fill="#3C3939" transform="translate(177.29296875,304.90234375)"/>
<path d="M0 0 C4.10757963 -0.07489276 8.2148876 -0.12894754 12.32299805 -0.16479492 C13.71662328 -0.17975938 15.11020244 -0.20013851 16.50366211 -0.22631836 C27.27091873 -0.42335104 36.28741801 0.06953705 45 7 C50.67129985 12.80633079 54.14464316 19.21964885 54.5625 27.4375 C54.33412048 33.46841105 52.15538188 37.94588542 49 43 C48.4225 43.928125 47.845 44.85625 47.25 45.8125 C40.39565465 52.47644687 32.96433198 54.4309297 23.68359375 54.3359375 C15.3622348 53.57704368 9.83396933 49.53349291 4.47265625 43.35546875 C-0.98343988 34.62860942 -0.3550369 25.91523405 -0.1875 16 C-0.17242973 14.44662752 -0.15874546 12.89324094 -0.14648438 11.33984375 C-0.11365497 7.55954385 -0.06200254 3.77992937 0 0 Z " fill="#3C3939" transform="translate(310,305)"/>
<path d="M0 0 C5.11663636 3.8732387 8.1326164 8.66193754 10.06640625 14.75 C10.84929555 20.58512508 10.54086113 26.50673298 10.37890625 32.375 C10.35377654 33.96741266 10.33097166 35.55986379 10.31054688 37.15234375 C10.25595502 41.01919413 10.16994976 44.8841634 10.06640625 48.75 C5.83469674 48.8499677 1.60363915 48.92197673 -2.62890625 48.96972656 C-4.06424962 48.98966189 -5.49951372 49.01682074 -6.93457031 49.05175781 C-17.36442374 49.29904862 -27.07746043 48.84112226 -35.30859375 41.5625 C-41.58868579 35.51123722 -43.33581482 29.45672401 -43.55859375 20.8125 C-43.4892746 13.51708187 -41.96784641 8.14101073 -36.93359375 2.75 C-25.49952097 -7.03008741 -12.81366692 -8.28358266 0 0 Z " fill="#484444" transform="translate(191.93359375,149.25)"/>
<path d="M0 0 C3.75942228 2.17427008 6.73707401 4.41804807 9.5 7.8125 C9.9640625 8.3178125 10.428125 8.823125 10.90625 9.34375 C15.28432968 14.8893176 15.34053521 21.11043085 14.98046875 27.890625 C14.09305987 35.1341902 11.44168203 40.33701375 6.0625 45.25 C-1.29024317 50.8717518 -8.17940435 51.95222625 -17.30859375 51.91015625 C-18.54931641 51.90693359 -19.79003906 51.90371094 -21.06835938 51.90039062 C-22.34517578 51.89201172 -23.62199219 51.88363281 -24.9375 51.875 C-26.89333008 51.86823242 -26.89333008 51.86823242 -28.88867188 51.86132812 C-32.09249552 51.84959251 -35.29622363 51.83317363 -38.5 51.8125 C-38.62478566 47.15357947 -38.71488741 42.49565819 -38.7746582 37.83544922 C-38.79960626 36.25454741 -38.83357805 34.67375858 -38.87719727 33.09326172 C-39.15989384 22.57694926 -39.11006117 13.8432811 -31.52392578 5.68823242 C-22.76774978 -2.67280115 -11.20067104 -5.30734338 0 0 Z " fill="#484444" transform="translate(348.5,146.1875)"/>
</svg>
